<svg id="Vrstva_1" data-name="Vrstva 1" xmlns="http://www.w3.org/2000/svg" viewBox="0 0 800 498.43"><defs><style>.cls-1{fill:#fff;}</style></defs><rect class="cls-1" x="175.13" y="274.96" width="624.87" height="223.47" rx="106.33"/><path class="cls-1" d="M0,649.21H152.71V378.11S112.08,564.45,87.57,591.77C60.75,621.65,0,649.21,0,649.21Z" transform="translate(0 -150.79)"/><rect class="cls-1" x="133.8" y="368.13" width="64.45" height="37.13"/><rect class="cls-1" x="264.1" y="164.28" width="445.53" height="203.85" rx="17.33"/><path class="cls-1" d="M646,150.79H498.19c-14.51,0-22.06,10.16-26.27,26.27L427.43,402.63c0,14.51,56.25,23.12,70.76,23.12H646a26.27,26.27,0,0,0,26.27-26.27V177.06A26.27,26.27,0,0,0,646,150.79ZM634.77,271.6c0,9.5-3.82,16.39-13.54,16.39l-119.63.28c-9.51-.26-14.71-6-14-15.45L500.9,201c2.81-10.54,7.88-17.19,17.59-17.19h99A17.41,17.41,0,0,1,635.12,201Z" transform="translate(0 -150.79)"/><polygon class="cls-1" points="380.38 195.45 353.76 195.45 344.66 102.28 389.49 102.28 380.38 195.45"/></svg>