<svg id="Vrstva_1" data-name="Vrstva 1" xmlns="http://www.w3.org/2000/svg" viewBox="0 0 726.28 801"><defs><style>.cls-1{fill:#fff;}</style></defs><rect class="cls-1" x="47.32" y="471.1" width="226.34" height="323.35" rx="32.33" transform="translate(-90.9 16.4) rotate(-5)"/><path class="cls-1" d="M693.14,334.13,557.85,322.29a45.31,45.31,0,0,1-41.15-49L537,41.33A45.32,45.32,0,0,1,586,.17L721.32,12a45.33,45.33,0,0,1,41.15,49L742.18,293A45.33,45.33,0,0,1,693.14,334.13ZM583.77,25.94a19.42,19.42,0,0,0-21,17.64L542.46,275.5a19.42,19.42,0,0,0,17.64,21l135.29,11.84a19.42,19.42,0,0,0,21-17.64L736.7,58.8a19.42,19.42,0,0,0-17.64-21Z" transform="translate(-36.36 0)"/><path class="cls-1" d="M399.64,5.48l83.53,69.61-83.53,69.62V102.94C236,103.16,103,236.32,103,400H47.32A352.72,352.72,0,0,1,399.64,47.25Z" transform="translate(-36.36 0)"/><path class="cls-1" d="M697.06,400h55.69A352.72,352.72,0,0,1,400,752.68v41.77L316.5,724.83,400,655.21V697C563.82,697,697.06,563.74,697.06,400Z" transform="translate(-36.36 0)"/><path class="cls-1" d="M619,196.33q1.44-16.56,6-25.83A41,41,0,0,1,638.59,155a80.84,80.84,0,0,0,13.89-11.76,21.13,21.13,0,0,0,5.5-12.5q1.49-17.13-13.25-18.42a13.72,13.72,0,0,0-11.44,4q-4.65,4.62-5.61,13.11l-38.35-3.35Q591.55,103.4,606.72,92t40.59-9.2Q672.6,85,685.48,97.89t11,34.46a39,39,0,0,1-5.24,16.8q-4.43,7.38-13.41,14.72l-14.11,11A31,31,0,0,0,655,185.14a43.73,43.73,0,0,0-3.63,14Zm-7.67,34.08a17.65,17.65,0,0,1,7.27-13.25,24,24,0,0,1,30.29,2.65,18.74,18.74,0,0,1-2.41,27.56,24,24,0,0,1-30.29-2.65A17.65,17.65,0,0,1,611.3,230.41Z" transform="translate(-36.36 0)"/></svg>