<svg id="Vrstva_1" data-name="Vrstva 1" xmlns="http://www.w3.org/2000/svg" viewBox="0 0 731.58 801.35"><defs><style>.cls-1{fill:#fff;}.cls-2{fill:none;}</style></defs><rect class="cls-1" x="57.38" y="123.75" width="463.96" height="662.81" rx="49.94" transform="translate(-72.1 26.95) rotate(-5)"/><path class="cls-1" d="M680.39,24.62,403.07.36A92.81,92.81,0,0,0,302.55,84.71l-1.83,21L354.36,101l1-11.68A39.75,39.75,0,0,1,394.92,53c1.18,0,2.35,0,3.54.14L675.78,77.45a39.8,39.8,0,0,1,36.15,43.08l-41.6,475.4a39.8,39.8,0,0,1-43.08,36.15l-73.08-6.39,4.69,53.62,63.78,5.59c2.73.25,5.44.35,8.15.35a92.92,92.92,0,0,0,92.37-84.7l41.59-475.41A92.89,92.89,0,0,0,680.39,24.62Z" transform="translate(-33.54)"/><path class="cls-2" d="M313.78,564.73,354.36,101l86.79-7.59a66.18,66.18,0,0,1,71.71,60.17l41.31,472.11L349.93,607.82A39.82,39.82,0,0,1,313.78,564.73Z" transform="translate(-33.54)"/></svg>